<?xml version="1.0" encoding="UTF-8" standalone="no"?>
<svg
   xmlns:dc="http://purl.org/dc/elements/1.1/"
   xmlns:cc="http://creativecommons.org/ns#"
   xmlns:rdf="http://www.w3.org/1999/02/22-rdf-syntax-ns#"
   xmlns:svg="http://www.w3.org/2000/svg"
   xmlns="http://www.w3.org/2000/svg"
   xmlns:sodipodi="http://sodipodi.sourceforge.net/DTD/sodipodi-0.dtd"
   xmlns:inkscape="http://www.inkscape.org/namespaces/inkscape"
   version="1.1"
   width="24"
   height="24"
   viewBox="0 0 24 24"
   id="svg5445"
   sodipodi:docname="bandage.svg"
   inkscape:version="1.0.2 (e86c8708, 2021-01-15)">
  <metadata
     id="metadata5451">
    <rdf:RDF>
      <cc:Work
         rdf:about="">
        <dc:format>image/svg+xml</dc:format>
        <dc:type
           rdf:resource="http://purl.org/dc/dcmitype/StillImage" />
        <dc:title />
      </cc:Work>
    </rdf:RDF>
  </metadata>
  <defs
     id="defs5449" />
  <sodipodi:namedview
     pagecolor="#ffffff"
     bordercolor="#666666"
     borderopacity="1"
     objecttolerance="10"
     gridtolerance="10"
     guidetolerance="10"
     inkscape:pageopacity="0"
     inkscape:pageshadow="2"
     inkscape:window-width="1731"
     inkscape:window-height="1075"
     id="namedview5447"
     showgrid="false"
     showguides="false"
     inkscape:zoom="30.625"
     inkscape:cx="17.240816"
     inkscape:cy="12.587755"
     inkscape:window-x="1920"
     inkscape:window-y="344"
     inkscape:window-maximized="0"
     inkscape:current-layer="svg5445"
     inkscape:document-rotation="0" />
  <rect
     style="fill:#fed7d7;fill-opacity:1;stroke:#fed7d7;stroke-width:0.974559;stroke-opacity:1"
     id="rect7352"
     width="3.9183674"
     height="20.561424"
     x="-2.1388295"
     y="6.9004817"
     transform="rotate(-45.895239)" />
  <path
     d="M17.73,12L21.71,8.04C22.1,7.65 22.1,7 21.71,6.63L17.37,2.29C17,1.9 16.35,1.9 15.96,2.29L12,6.27L8,2.29C7.8,2.1 7.55,2 7.29,2C7.04,2 6.78,2.1 6.59,2.29L2.25,6.63C1.86,7 1.86,7.65 2.25,8.04L6.23,12L2.25,16C1.86,16.39 1.86,17 2.25,17.41L6.59,21.75C7,22.14 7.61,22.14 8,21.75L12,17.77L15.96,21.75C16.16,21.95 16.41,22.04 16.67,22.04C16.93,22.04 17.18,21.94 17.38,21.75L21.72,17.41C22.11,17 22.11,16.39 21.72,16L17.73,12M12,9A1,1 0 0,1 13,10A1,1 0 0,1 12,11A1,1 0 0,1 11,10A1,1 0 0,1 12,9M7.29,10.96L3.66,7.34L7.29,3.71L10.91,7.33L7.29,10.96M10,13A1,1 0 0,1 9,12A1,1 0 0,1 10,11A1,1 0 0,1 11,12A1,1 0 0,1 10,13M12,15A1,1 0 0,1 11,14A1,1 0 0,1 12,13A1,1 0 0,1 13,14A1,1 0 0,1 12,15M14,11A1,1 0 0,1 15,12A1,1 0 0,1 14,13A1,1 0 0,1 13,12A1,1 0 0,1 14,11M16.66,20.34L13.03,16.72L16.66,13.09L20.28,16.71L16.66,20.34Z"
     id="path5443"
     style="fill:#e53e3e;fill-opacity:1;stroke:#e53e3e;stroke-opacity:1" />
  <ellipse
     style="fill:#ffffff;fill-opacity:1;stroke:#ffffff;stroke-width:1.5308;stroke-opacity:1"
     id="path994-6-4-5"
     cx="18.724081"
     cy="18.610344"
     rx="2.7528296"
     ry="2.669193" />
  <path
     d="m 18.65357,21.873135 c -1.863783,0 -3.381014,-1.465414 -3.381014,-3.265542 0,-1.800136 1.517231,-3.265546 3.381014,-3.265546 1.863791,0 3.381022,1.46541 3.381022,3.265546 0,1.800128 -1.517231,3.265542 -3.381022,3.265542 m 0,-7.34747 a 4.2262738,4.081931 0 0 0 -4.226271,4.081928 4.2262738,4.081931 0 0 0 4.226271,4.081928 4.2262738,4.081931 0 0 0 4.22628,-4.081928 4.2262738,4.081931 0 0 0 -4.22628,-4.081928 m 0.42265,2.040964 H 18.230963 V 18.1994 h -1.690508 v 0.816386 h 1.690508 v 1.632771 h 0.845257 v -1.632771 h 1.690507 V 18.1994 H 19.07622 Z"
     id="path3303"
     style="fill:#e53e3e;fill-opacity:1;stroke-width:0.415347" />
</svg>
