<?xml version="1.0" encoding="UTF-8" standalone="no"?>
<svg
   xmlns:dc="http://purl.org/dc/elements/1.1/"
   xmlns:cc="http://creativecommons.org/ns#"
   xmlns:rdf="http://www.w3.org/1999/02/22-rdf-syntax-ns#"
   xmlns:svg="http://www.w3.org/2000/svg"
   xmlns="http://www.w3.org/2000/svg"
   xmlns:sodipodi="http://sodipodi.sourceforge.net/DTD/sodipodi-0.dtd"
   xmlns:inkscape="http://www.inkscape.org/namespaces/inkscape"
   version="1.1"
   width="24"
   height="24"
   viewBox="0 0 24 24"
   id="svg6110"
   sodipodi:docname="calendar.svg"
   inkscape:version="1.0.2 (e86c8708, 2021-01-15)">
  <metadata
     id="metadata6116">
    <rdf:RDF>
      <cc:Work
         rdf:about="">
        <dc:format>image/svg+xml</dc:format>
        <dc:type
           rdf:resource="http://purl.org/dc/dcmitype/StillImage" />
        <dc:title />
      </cc:Work>
    </rdf:RDF>
  </metadata>
  <defs
     id="defs6114" />
  <sodipodi:namedview
     pagecolor="#ffffff"
     bordercolor="#666666"
     borderopacity="1"
     objecttolerance="10"
     gridtolerance="10"
     guidetolerance="10"
     inkscape:pageopacity="0"
     inkscape:pageshadow="2"
     inkscape:window-width="1792"
     inkscape:window-height="1094"
     id="namedview6112"
     showgrid="true"
     inkscape:zoom="30.625"
     inkscape:cx="7.0693877"
     inkscape:cy="12.457143"
     inkscape:window-x="1920"
     inkscape:window-y="347"
     inkscape:window-maximized="0"
     inkscape:current-layer="svg6110"
     inkscape:document-rotation="0">
    <inkscape:grid
       type="xygrid"
       id="grid8113" />
  </sodipodi:namedview>
  <rect
     style="fill:#b2f5ea;fill-opacity:1;stroke:#b2f5ea;stroke-width:1.04524;stroke-opacity:1"
     id="rect7354"
     width="14.689795"
     height="11.808164"
     x="5"
     y="7" />
  <path
     d="M 19,19 H 5 L 5.0326531,6.3346939 19.032653,6.3673469 M 16,1 V 3 H 8 V 1 H 6 V 3 H 5 C 3.89,3 3,3.89 3,5 v 14 c 0,1.104569 0.8954305,2 2,2 h 14 c 1.104569,0 2,-0.895431 2,-2 V 5 C 21,3.89 20.1,3 19,3 H 18 V 1 m -8,12.436734 -3,0 V 16 h 3 z"
     id="path6108"
     style="fill:#234e52;fill-opacity:1;stroke:#234e52;stroke-opacity:1"
     sodipodi:nodetypes="ccccccccccssssssssccccccc" />
  <ellipse
     style="fill:#ffffff;fill-opacity:1;stroke:#ffffff;stroke-width:1.56912;stroke-opacity:1"
     id="path994-6-4-5"
     cx="18.437857"
     cy="18.059898"
     rx="2.9132643"
     ry="2.6500359" />
  <path
     d="m 18.546935,21.322688 c -1.863783,0 -3.381014,-1.465414 -3.381014,-3.265542 0,-1.800137 1.517231,-3.265546 3.381014,-3.265546 1.863791,0 3.381022,1.465409 3.381022,3.265546 0,1.800128 -1.517231,3.265542 -3.381022,3.265542 m 0,-7.34747 a 4.2262738,4.081931 0 0 0 -4.226271,4.081928 4.2262738,4.081931 0 0 0 4.226271,4.081927 4.2262738,4.081931 0 0 0 4.22628,-4.081927 4.2262738,4.081931 0 0 0 -4.22628,-4.081928 m 0.42265,2.040964 h -0.845257 v 1.632771 H 16.43382 v 0.816385 h 1.690508 v 1.632771 h 0.845257 v -1.632771 h 1.690507 v -0.816385 h -1.690507 z"
     id="path3303"
     style="stroke-width:0.415347;fill:#234e52;fill-opacity:1;stroke:#234e52;stroke-opacity:1" />
</svg>
