<?xml version="1.0" encoding="UTF-8" standalone="no"?>
<svg
   xmlns:dc="http://purl.org/dc/elements/1.1/"
   xmlns:cc="http://creativecommons.org/ns#"
   xmlns:rdf="http://www.w3.org/1999/02/22-rdf-syntax-ns#"
   xmlns:svg="http://www.w3.org/2000/svg"
   xmlns="http://www.w3.org/2000/svg"
   xmlns:sodipodi="http://sodipodi.sourceforge.net/DTD/sodipodi-0.dtd"
   xmlns:inkscape="http://www.inkscape.org/namespaces/inkscape"
   version="1.1"
   width="24"
   height="24"
   viewBox="0 0 24 24"
   id="svg1270"
   sodipodi:docname="checkout.svg"
   inkscape:version="1.0.2 (e86c8708, 2021-01-15)">
  <metadata
     id="metadata1276">
    <rdf:RDF>
      <cc:Work
         rdf:about="">
        <dc:format>image/svg+xml</dc:format>
        <dc:type
           rdf:resource="http://purl.org/dc/dcmitype/StillImage" />
        <dc:title></dc:title>
      </cc:Work>
    </rdf:RDF>
  </metadata>
  <defs
     id="defs1274" />
  <sodipodi:namedview
     pagecolor="#ffffff"
     bordercolor="#666666"
     borderopacity="1"
     objecttolerance="10"
     gridtolerance="10"
     guidetolerance="10"
     inkscape:pageopacity="0"
     inkscape:pageshadow="2"
     inkscape:window-width="1792"
     inkscape:window-height="1094"
     id="namedview1272"
     showgrid="false"
     inkscape:zoom="30.625"
     inkscape:cx="19.2"
     inkscape:cy="13.567347"
     inkscape:window-x="1920"
     inkscape:window-y="347"
     inkscape:window-maximized="0"
     inkscape:current-layer="svg1270" />
  <path
     d="M12,11.5A2.5,2.5 0 0,1 9.5,9A2.5,2.5 0 0,1 12,6.5A2.5,2.5 0 0,1 14.5,9A2.5,2.5 0 0,1 12,11.5M12,2A7,7 0 0,0 5,9C5,14.25 12,22 12,22C12,22 19,14.25 19,9A7,7 0 0,0 12,2Z"
     id="path1268"
     style="stroke:#2c5282;stroke-opacity:1;fill:#63b3ed;fill-opacity:1" />
  <ellipse
     style="fill:#ffffff;fill-opacity:1;stroke:#ffffff;stroke-width:1.53756;stroke-opacity:1"
     id="path994-6-8"
     cx="16.466927"
     cy="17.885921"
     rx="2.7313955"
     ry="2.7139304" />
  <path
     d="m 16.620406,21.15497 c -1.833676,0 -3.3264,-1.49272 -3.3264,-3.3264 0,-1.833675 1.492724,-3.326396 3.3264,-3.326396 1.833679,0 3.3264,1.492721 3.3264,3.326396 0,1.83368 -1.492721,3.3264 -3.3264,3.3264 m 0,-7.484398 a 4.1579985,4.1579989 0 0 0 -4.157998,4.157998 4.1579985,4.1579989 0 0 0 4.157998,4.158002 4.1579985,4.1579989 0 0 0 4.157998,-4.158002 4.1579985,4.1579989 0 0 0 -4.157998,-4.157998 m -2.079001,4.573799 h 4.158002 v -0.831602 h -4.158002"
     id="path1101"
     style="stroke-width:0.415797;fill:#2c5282;fill-opacity:1" />
</svg>
