<?xml version="1.0" encoding="UTF-8" standalone="no"?>
<svg
   xmlns:dc="http://purl.org/dc/elements/1.1/"
   xmlns:cc="http://creativecommons.org/ns#"
   xmlns:rdf="http://www.w3.org/1999/02/22-rdf-syntax-ns#"
   xmlns:svg="http://www.w3.org/2000/svg"
   xmlns="http://www.w3.org/2000/svg"
   xmlns:sodipodi="http://sodipodi.sourceforge.net/DTD/sodipodi-0.dtd"
   xmlns:inkscape="http://www.inkscape.org/namespaces/inkscape"
   version="1.1"
   width="24"
   height="24"
   viewBox="0 0 24 24"
   id="svg76"
   sodipodi:docname="discharge.svg"
   inkscape:version="1.0.2 (e86c8708, 2021-01-15)">
  <metadata
     id="metadata82">
    <rdf:RDF>
      <cc:Work
         rdf:about="">
        <dc:format>image/svg+xml</dc:format>
        <dc:type
           rdf:resource="http://purl.org/dc/dcmitype/StillImage" />
        <dc:title></dc:title>
      </cc:Work>
    </rdf:RDF>
  </metadata>
  <defs
     id="defs80" />
  <sodipodi:namedview
     pagecolor="#ffffff"
     bordercolor="#666666"
     borderopacity="1"
     objecttolerance="10"
     gridtolerance="10"
     guidetolerance="10"
     inkscape:pageopacity="0"
     inkscape:pageshadow="2"
     inkscape:window-width="1792"
     inkscape:window-height="1094"
     id="namedview78"
     showgrid="false"
     inkscape:zoom="36.125"
     inkscape:cx="8.4982699"
     inkscape:cy="11.695502"
     inkscape:window-x="1920"
     inkscape:window-y="347"
     inkscape:window-maximized="0"
     inkscape:current-layer="svg76" />
  <path
     d="M12,4A4,4 0 0,1 16,8A4,4 0 0,1 12,12A4,4 0 0,1 8,8A4,4 0 0,1 12,4M12,14C16.42,14 20,15.79 20,18V20H4V18C4,15.79 7.58,14 12,14Z"
     id="path74"
     style="fill:#fed7d7;stroke:#e53e3e;fill-opacity:1;stroke-opacity:1" />
  <ellipse
     style="fill:#ffffff;fill-opacity:1;stroke:#ffffff;stroke-width:1.56389;stroke-opacity:1"
     id="path994-3"
     cx="18.979986"
     cy="16.960678"
     rx="2.8144581"
     ry="2.7248213" />
  <path
     d="m 18.96194,20.32294 c -1.833675,0 -3.3264,-1.492721 -3.3264,-3.3264 0,-1.833676 1.492725,-3.326397 3.3264,-3.326397 1.83368,0 3.3264,1.492721 3.3264,3.326397 0,1.833679 -1.49272,3.3264 -3.3264,3.3264 m 0,-7.484399 a 4.1579985,4.1579989 0 0 0 -4.157998,4.157999 4.1579985,4.1579989 0 0 0 4.157998,4.158001 4.1579985,4.1579989 0 0 0 4.157998,-4.158001 4.1579985,4.1579989 0 0 0 -4.157998,-4.157999 m -2.079001,4.5738 h 4.158002 v -0.831602 h -4.158002"
     id="path1101"
     style="stroke-width:0.415797;fill:#e53e3e;fill-opacity:1" />
</svg>
