<?xml version="1.0" encoding="UTF-8" standalone="no"?>
<svg
   xmlns:dc="http://purl.org/dc/elements/1.1/"
   xmlns:cc="http://creativecommons.org/ns#"
   xmlns:rdf="http://www.w3.org/1999/02/22-rdf-syntax-ns#"
   xmlns:svg="http://www.w3.org/2000/svg"
   xmlns="http://www.w3.org/2000/svg"
   xmlns:sodipodi="http://sodipodi.sourceforge.net/DTD/sodipodi-0.dtd"
   xmlns:inkscape="http://www.inkscape.org/namespaces/inkscape"
   version="1.1"
   width="24"
   height="24"
   viewBox="0 0 24 24"
   id="svg76"
   sodipodi:docname="new_intake.svg"
   inkscape:version="1.0.2 (e86c8708, 2021-01-15)">
  <metadata
     id="metadata82">
    <rdf:RDF>
      <cc:Work
         rdf:about="">
        <dc:format>image/svg+xml</dc:format>
        <dc:type
           rdf:resource="http://purl.org/dc/dcmitype/StillImage" />
        <dc:title></dc:title>
      </cc:Work>
    </rdf:RDF>
  </metadata>
  <defs
     id="defs80" />
  <sodipodi:namedview
     pagecolor="#ffffff"
     bordercolor="#666666"
     borderopacity="1"
     objecttolerance="10"
     gridtolerance="10"
     guidetolerance="10"
     inkscape:pageopacity="0"
     inkscape:pageshadow="2"
     inkscape:window-width="1792"
     inkscape:window-height="1120"
     id="namedview78"
     showgrid="false"
     inkscape:zoom="36.125"
     inkscape:cx="8.4982699"
     inkscape:cy="11.695502"
     inkscape:window-x="1920"
     inkscape:window-y="321"
     inkscape:window-maximized="0"
     inkscape:current-layer="svg76" />
  <path
     d="M12,4A4,4 0 0,1 16,8A4,4 0 0,1 12,12A4,4 0 0,1 8,8A4,4 0 0,1 12,4M12,14C16.42,14 20,15.79 20,18V20H4V18C4,15.79 7.58,14 12,14Z"
     id="path74"
     style="fill:#b2f5ea;stroke:#234e52;fill-opacity:1;stroke-opacity:1" />
  <g
     id="g998"
     transform="translate(23.833911,6.449827)">
    <ellipse
       style="fill:#ffffff;fill-opacity:1;stroke:#ffffff;stroke-width:1.32034;stroke-opacity:1"
       id="path994"
       cx="-4.2629752"
       cy="10.449826"
       rx="2.3588607"
       ry="2.3173385" />
    <path
       d="m -4.2456743,13.49827 c -1.680073,0 -3.0477507,-1.372647 -3.0477507,-3.058823 0,-1.6861766 1.3676777,-3.0588236 3.0477507,-3.0588236 1.680073,0 3.047751,1.372647 3.047751,3.0588236 0,1.686176 -1.367678,3.058823 -3.047751,3.058823 m 0,-6.8823526 a 3.8096886,3.8235294 0 0 0 -3.8096887,3.8235296 3.8096886,3.8235294 0 0 0 3.8096887,3.823529 3.8096886,3.8235294 0 0 0 3.80968794,-3.823529 3.8096886,3.8235294 0 0 0 -3.80968794,-3.8235296 m 0.380969,1.911765 h -0.761938 v 1.5294116 h -1.523876 V 10.8218 h 1.523876 v 1.529411 h 0.761938 V 10.8218 h 1.523875 v -0.764706 h -1.523875 z"
       id="path981"
       style="fill:#234e52;fill-opacity:1;stroke:#234e52;stroke-width:0.38166;stroke-opacity:1" />
  </g>
</svg>
