<?xml version="1.0" encoding="UTF-8" standalone="no"?>
<svg
   xmlns:dc="http://purl.org/dc/elements/1.1/"
   xmlns:cc="http://creativecommons.org/ns#"
   xmlns:rdf="http://www.w3.org/1999/02/22-rdf-syntax-ns#"
   xmlns:svg="http://www.w3.org/2000/svg"
   xmlns="http://www.w3.org/2000/svg"
   xmlns:sodipodi="http://sodipodi.sourceforge.net/DTD/sodipodi-0.dtd"
   xmlns:inkscape="http://www.inkscape.org/namespaces/inkscape"
   version="1.1"
   width="24"
   height="24"
   viewBox="0 0 24 24"
   id="svg3248"
   sodipodi:docname="pill.svg"
   inkscape:version="1.0.2 (e86c8708, 2021-01-15)">
  <metadata
     id="metadata3254">
    <rdf:RDF>
      <cc:Work
         rdf:about="">
        <dc:format>image/svg+xml</dc:format>
        <dc:type
           rdf:resource="http://purl.org/dc/dcmitype/StillImage" />
        <dc:title></dc:title>
      </cc:Work>
    </rdf:RDF>
  </metadata>
  <defs
     id="defs3252">
    <clipPath
       clipPathUnits="userSpaceOnUse"
       id="clipPath3983">
      <rect
         style="fill:#b794f4;fill-opacity:1;stroke:#805ad5;stroke-opacity:1"
         id="rect3985"
         width="20.538776"
         height="15.771428"
         x="-15.88682"
         y="13.674044"
         transform="rotate(43.85921)" />
    </clipPath>
  </defs>
  <sodipodi:namedview
     pagecolor="#ffffff"
     bordercolor="#666666"
     borderopacity="1"
     objecttolerance="10"
     gridtolerance="10"
     guidetolerance="10"
     inkscape:pageopacity="0"
     inkscape:pageshadow="2"
     inkscape:window-width="1792"
     inkscape:window-height="1094"
     id="namedview3250"
     showgrid="false"
     inkscape:zoom="15.759405"
     inkscape:cx="-4.3486539"
     inkscape:cy="11.054474"
     inkscape:window-x="1920"
     inkscape:window-y="347"
     inkscape:window-maximized="0"
     inkscape:current-layer="svg3248">
    <sodipodi:guide
       position="-8.3918367,26.808163"
       orientation="0,-1"
       id="guide3958" />
  </sodipodi:namedview>
  <path
     id="path3951"
     style="fill:none;stroke:#805ad5;stroke-width:1px;stroke-linecap:butt;stroke-linejoin:miter;stroke-opacity:1"
     d="M 7.8040816,7.8040816 16.457143,16.163265 M 19.78,12.71 12.71,19.78 c -2.35,2.34 -6.14,2.34 -8.49,0 -2.34,-2.34 -2.34,-6.14 0,-8.49 l 7.07,-7.07 c 2.35,-2.34 6.15,-2.34 8.49,0 2.34,2.35 2.34,6.14 0,8.49" />
  <path
     id="path3951-4"
     style="fill:#b794f4;stroke:#805ad5;stroke-width:1px;stroke-linecap:butt;stroke-linejoin:miter;stroke-opacity:1;fill-opacity:1"
     d="m -28.768634,13.401194 8.653061,8.359183 m 3.322857,-3.453265 -7.07,7.07 c -2.35,2.34 -6.14,2.34 -8.490001,0 -2.34,-2.34 -2.34,-6.14 0,-8.49 l 7.070001,-7.0699996 c 2.35,-2.34 6.15,-2.34 8.49,0 2.34,2.3499996 2.34,6.1399996 0,8.4899996"
     clip-path="url(#clipPath3983)"
     transform="translate(36.572716,-5.597112)" />
  <ellipse
     style="fill:#ffffff;fill-opacity:1;stroke:#ffffff;stroke-width:1.50576;stroke-opacity:1"
     id="path994-6-4-5"
     cx="16.158426"
     cy="17.52943"
     rx="2.6510649"
     ry="2.6817141" />
  <path
     d="m 16.372117,20.835229 c -1.863783,0 -3.381014,-1.465414 -3.381014,-3.265543 0,-1.800136 1.517231,-3.265545 3.381014,-3.265545 1.863791,0 3.381022,1.465409 3.381022,3.265545 0,1.800129 -1.517231,3.265543 -3.381022,3.265543 m 0,-7.34747 a 4.2262738,4.081931 0 0 0 -4.226271,4.081927 4.2262738,4.081931 0 0 0 4.226271,4.081928 4.2262738,4.081931 0 0 0 4.22628,-4.081928 4.2262738,4.081931 0 0 0 -4.22628,-4.081927 m 0.42265,2.040964 H 15.94951 v 1.632771 h -1.690508 v 0.816385 h 1.690508 v 1.632771 h 0.845257 v -1.632771 h 1.690507 v -0.816385 h -1.690507 z"
     id="path3303"
     style="stroke-width:0.415347;fill:#805ad5;fill-opacity:1;stroke:#805ad5;stroke-opacity:1" />
</svg>
