<?xml version="1.0" encoding="UTF-8" standalone="no"?>
<svg
   xmlns:dc="http://purl.org/dc/elements/1.1/"
   xmlns:cc="http://creativecommons.org/ns#"
   xmlns:rdf="http://www.w3.org/1999/02/22-rdf-syntax-ns#"
   xmlns:svg="http://www.w3.org/2000/svg"
   xmlns="http://www.w3.org/2000/svg"
   xmlns:sodipodi="http://sodipodi.sourceforge.net/DTD/sodipodi-0.dtd"
   xmlns:inkscape="http://www.inkscape.org/namespaces/inkscape"
   version="1.1"
   width="24"
   height="24"
   viewBox="0 0 24 24"
   id="svg7454"
   sodipodi:docname="progress.svg"
   inkscape:version="1.0.2 (e86c8708, 2021-01-15)">
  <metadata
     id="metadata7460">
    <rdf:RDF>
      <cc:Work
         rdf:about="">
        <dc:format>image/svg+xml</dc:format>
        <dc:type
           rdf:resource="http://purl.org/dc/dcmitype/StillImage" />
        <dc:title />
      </cc:Work>
    </rdf:RDF>
  </metadata>
  <defs
     id="defs7458" />
  <sodipodi:namedview
     pagecolor="#ffffff"
     bordercolor="#666666"
     borderopacity="1"
     objecttolerance="10"
     gridtolerance="10"
     guidetolerance="10"
     inkscape:pageopacity="0"
     inkscape:pageshadow="2"
     inkscape:window-width="1731"
     inkscape:window-height="1075"
     id="namedview7456"
     showgrid="false"
     inkscape:zoom="30.625"
     inkscape:cx="18.938775"
     inkscape:cy="12.42449"
     inkscape:window-x="1920"
     inkscape:window-y="344"
     inkscape:window-maximized="0"
     inkscape:current-layer="svg7454"
     inkscape:document-rotation="0" />
  <rect
     style="fill:#90cdf4;fill-opacity:1;stroke:#bee3f8;stroke-opacity:1"
     id="rect8676"
     width="15.020409"
     height="15.57551"
     x="4.3755102"
     y="4.1469388" />
  <ellipse
     style="fill:#90cdf4;fill-opacity:1;stroke:#90cdf4;stroke-opacity:1"
     id="path8678"
     cx="12.163265"
     cy="5.044898"
     rx="1.6489795"
     ry="2.3020408" />
  <path
     d="M19,3A2,2 0 0,1 21,5V19A2,2 0 0,1 19,21H5A2,2 0 0,1 3,19V5A2,2 0 0,1 5,3H9.18C9.6,1.84 10.7,1 12,1C13.3,1 14.4,1.84 14.82,3H19M12,3A1,1 0 0,0 11,4A1,1 0 0,0 12,5A1,1 0 0,0 13,4A1,1 0 0,0 12,3M7,7V5H5V19H19V5H17V7H7M12,9A2,2 0 0,1 14,11A2,2 0 0,1 12,13A2,2 0 0,1 10,11A2,2 0 0,1 12,9M8,17V16C8,14.9 9.79,14 12,14C14.21,14 16,14.9 16,16V17H8Z"
     id="path7452"
     style="fill:#2c5282;fill-opacity:1" />
  <ellipse
     style="fill:#ffffff;fill-opacity:1;stroke:#ffffff;stroke-width:1.58275;stroke-opacity:1"
     id="path994-6-4-5"
     cx="18.402964"
     cy="18.594561"
     rx="2.9717536"
     ry="2.643219" />
  <path
     d="m 18.57735,21.85735 c -1.863783,0 -3.381014,-1.465414 -3.381014,-3.265542 0,-1.800137 1.517231,-3.265546 3.381014,-3.265546 1.863791,0 3.381022,1.465409 3.381022,3.265546 0,1.800128 -1.517231,3.265542 -3.381022,3.265542 m 0,-7.34747 a 4.2262738,4.081931 0 0 0 -4.226271,4.081928 4.2262738,4.081931 0 0 0 4.226271,4.081927 4.2262738,4.081931 0 0 0 4.22628,-4.081927 4.2262738,4.081931 0 0 0 -4.22628,-4.081928 M 19,16.550844 h -0.845257 v 1.632771 H 16.464235 V 19 h 1.690508 v 1.632771 H 19 V 19 h 1.690507 V 18.183615 H 19 Z"
     id="path3303"
     style="stroke-width:0.415347;fill:#2c5282;fill-opacity:1" />
</svg>
