<?xml version="1.0" encoding="UTF-8" standalone="no"?>
<svg
   xmlns:dc="http://purl.org/dc/elements/1.1/"
   xmlns:cc="http://creativecommons.org/ns#"
   xmlns:rdf="http://www.w3.org/1999/02/22-rdf-syntax-ns#"
   xmlns:svg="http://www.w3.org/2000/svg"
   xmlns="http://www.w3.org/2000/svg"
   xmlns:sodipodi="http://sodipodi.sourceforge.net/DTD/sodipodi-0.dtd"
   xmlns:inkscape="http://www.inkscape.org/namespaces/inkscape"
   version="1.1"
   width="24"
   height="24"
   viewBox="0 0 24 24"
   id="svg4043"
   sodipodi:docname="treatment.svg"
   inkscape:version="1.0.2 (e86c8708, 2021-01-15)">
  <metadata
     id="metadata4049">
    <rdf:RDF>
      <cc:Work
         rdf:about="">
        <dc:format>image/svg+xml</dc:format>
        <dc:type
           rdf:resource="http://purl.org/dc/dcmitype/StillImage" />
        <dc:title></dc:title>
      </cc:Work>
    </rdf:RDF>
  </metadata>
  <defs
     id="defs4047" />
  <sodipodi:namedview
     pagecolor="#ffffff"
     bordercolor="#666666"
     borderopacity="1"
     objecttolerance="10"
     gridtolerance="10"
     guidetolerance="10"
     inkscape:pageopacity="0"
     inkscape:pageshadow="2"
     inkscape:window-width="1792"
     inkscape:window-height="1094"
     id="namedview4045"
     showgrid="false"
     inkscape:zoom="30.625"
     inkscape:cx="5.7142857"
     inkscape:cy="12"
     inkscape:window-x="1920"
     inkscape:window-y="347"
     inkscape:window-maximized="0"
     inkscape:current-layer="svg4043" />
  <path
     d="M12,21.35L10.55,20.03C5.4,15.36 2,12.27 2,8.5C2,5.41 4.42,3 7.5,3C9.24,3 10.91,3.81 12,5.08C13.09,3.81 14.76,3 16.5,3C19.58,3 22,5.41 22,8.5C22,12.27 18.6,15.36 13.45,20.03L12,21.35Z"
     id="path4041"
     style="stroke:#dd6b20;stroke-opacity:1;fill:#f6ad55;fill-opacity:1" />
  <ellipse
     style="fill:#ffffff;fill-opacity:1;stroke:#ffffff;stroke-width:1.5414;stroke-opacity:1"
     id="path994-6-4-5"
     cx="18.242682"
     cy="17.147129"
     rx="2.7966385"
     ry="2.6639073"
     transform="matrix(0.9999592,-0.009033,0,1,0,0)" />
  <path
     d="m 18.220406,20.245133 c -1.863783,0 -3.381014,-1.465414 -3.381014,-3.265542 0,-1.800137 1.517231,-3.265546 3.381014,-3.265546 1.863791,0 3.381022,1.465409 3.381022,3.265546 0,1.800128 -1.517231,3.265542 -3.381022,3.265542 m 0,-7.34747 a 4.2262738,4.081931 0 0 0 -4.226271,4.081928 4.2262738,4.081931 0 0 0 4.226271,4.081927 4.2262738,4.081931 0 0 0 4.22628,-4.081927 4.2262738,4.081931 0 0 0 -4.22628,-4.081928 m 0.42265,2.040964 h -0.845257 v 1.632771 h -1.690508 v 0.816385 h 1.690508 v 1.632771 h 0.845257 v -1.632771 h 1.690507 v -0.816385 h -1.690507 z"
     id="path3303"
     style="stroke-width:0.415347;fill:#dd6b20;fill-opacity:1;stroke:#dd6b20;stroke-opacity:1" />
</svg>
